<mxfile host="Electron" modified="2023-06-09T14:44:41.183Z" agent="Mozilla/5.0 (Macintosh; Intel Mac OS X 10_15_7) AppleWebKit/537.36 (KHTML, like Gecko) draw.io/21.2.8 Chrome/112.0.5615.165 Electron/24.2.0 Safari/537.36" etag="k1H_wfjAXerTfZUGDZBm" version="21.2.8" type="device">
  <diagram name="Page-1" id="adKYDT99F6B7E5xMw55L">
    <mxGraphModel dx="2874" dy="1163" grid="1" gridSize="10" guides="1" tooltips="1" connect="1" arrows="1" fold="1" page="0" pageScale="1" pageWidth="827" pageHeight="1169" math="0" shadow="0">
      <root>
        <mxCell id="0" />
        <mxCell id="1" parent="0" />
        <mxCell id="rmGUA4Gjx7cMflotxFhx-3" value="" style="rounded=1;whiteSpace=wrap;html=1;fontSize=16;fillColor=#dae8fc;strokeColor=#6c8ebf;dashed=1;arcSize=38;" vertex="1" parent="1">
          <mxGeometry x="-260" y="40" width="250" height="250" as="geometry" />
        </mxCell>
        <mxCell id="rmGUA4Gjx7cMflotxFhx-5" value="" style="rounded=1;whiteSpace=wrap;html=1;fontSize=16;fillColor=#ffe6cc;strokeColor=#d79b00;dashed=1;arcSize=38;" vertex="1" parent="1">
          <mxGeometry x="-260" y="350" width="250" height="250" as="geometry" />
        </mxCell>
        <mxCell id="rmGUA4Gjx7cMflotxFhx-1" value="" style="rounded=1;whiteSpace=wrap;html=1;fontSize=16;fillColor=#d5e8d4;strokeColor=#82b366;dashed=1;arcSize=38;" vertex="1" parent="1">
          <mxGeometry x="80" y="200" width="250" height="250" as="geometry" />
        </mxCell>
        <mxCell id="rmGUA4Gjx7cMflotxFhx-2" value="Core Storage" style="text;html=1;strokeColor=none;fillColor=none;align=center;verticalAlign=middle;whiteSpace=wrap;rounded=0;fontSize=18;" vertex="1" parent="1">
          <mxGeometry x="142.5" y="450" width="125" height="30" as="geometry" />
        </mxCell>
        <mxCell id="rmGUA4Gjx7cMflotxFhx-4" value="Add Data" style="text;html=1;strokeColor=none;fillColor=none;align=center;verticalAlign=middle;whiteSpace=wrap;rounded=0;fontSize=18;" vertex="1" parent="1">
          <mxGeometry x="-187.5" y="290" width="105" height="30" as="geometry" />
        </mxCell>
        <mxCell id="rmGUA4Gjx7cMflotxFhx-6" value="Run Queries" style="text;html=1;strokeColor=none;fillColor=none;align=center;verticalAlign=middle;whiteSpace=wrap;rounded=0;fontSize=18;" vertex="1" parent="1">
          <mxGeometry x="-187.5" y="600" width="105" height="30" as="geometry" />
        </mxCell>
        <mxCell id="rmGUA4Gjx7cMflotxFhx-104" style="edgeStyle=none;curved=1;rounded=0;orthogonalLoop=1;jettySize=auto;html=1;fontSize=12;startSize=8;endSize=8;" edge="1" parent="1" source="rmGUA4Gjx7cMflotxFhx-16" target="rmGUA4Gjx7cMflotxFhx-22">
          <mxGeometry relative="1" as="geometry" />
        </mxCell>
        <mxCell id="rmGUA4Gjx7cMflotxFhx-16" value="" style="sketch=0;points=[[0,0,0],[0.25,0,0],[0.5,0,0],[0.75,0,0],[1,0,0],[0,1,0],[0.25,1,0],[0.5,1,0],[0.75,1,0],[1,1,0],[0,0.25,0],[0,0.5,0],[0,0.75,0],[1,0.25,0],[1,0.5,0],[1,0.75,0]];outlineConnect=0;fontColor=#232F3E;gradientColor=#FF4F8B;gradientDirection=north;fillColor=#BC1356;strokeColor=#ffffff;dashed=0;verticalLabelPosition=bottom;verticalAlign=top;align=center;html=1;fontSize=12;fontStyle=0;aspect=fixed;shape=mxgraph.aws4.resourceIcon;resIcon=mxgraph.aws4.sqs;" vertex="1" parent="1">
          <mxGeometry x="-510" y="50" width="60" height="60" as="geometry" />
        </mxCell>
        <mxCell id="rmGUA4Gjx7cMflotxFhx-19" value="" style="endArrow=none;dashed=1;html=1;dashPattern=1 3;strokeWidth=5;rounded=0;fontSize=12;startSize=8;endSize=8;curved=1;" edge="1" parent="1">
          <mxGeometry width="50" height="50" relative="1" as="geometry">
            <mxPoint x="-480" y="180" as="sourcePoint" />
            <mxPoint x="-480" y="130" as="targetPoint" />
          </mxGeometry>
        </mxCell>
        <mxCell id="rmGUA4Gjx7cMflotxFhx-20" value="" style="sketch=0;points=[[0,0,0],[0.25,0,0],[0.5,0,0],[0.75,0,0],[1,0,0],[0,1,0],[0.25,1,0],[0.5,1,0],[0.75,1,0],[1,1,0],[0,0.25,0],[0,0.5,0],[0,0.75,0],[1,0.25,0],[1,0.5,0],[1,0.75,0]];outlineConnect=0;fontColor=#232F3E;gradientColor=#F78E04;gradientDirection=north;fillColor=#D05C17;strokeColor=#ffffff;dashed=0;verticalLabelPosition=bottom;verticalAlign=top;align=center;html=1;fontSize=12;fontStyle=0;aspect=fixed;shape=mxgraph.aws4.resourceIcon;resIcon=mxgraph.aws4.fargate;" vertex="1" parent="1">
          <mxGeometry x="-165" y="90" width="60" height="60" as="geometry" />
        </mxCell>
        <mxCell id="rmGUA4Gjx7cMflotxFhx-113" style="edgeStyle=none;curved=1;rounded=0;orthogonalLoop=1;jettySize=auto;html=1;fontSize=12;startSize=8;endSize=8;entryX=0;entryY=0.25;entryDx=0;entryDy=0;entryPerimeter=0;exitX=1;exitY=0.5;exitDx=0;exitDy=0;exitPerimeter=0;" edge="1" parent="1" source="rmGUA4Gjx7cMflotxFhx-22" target="rmGUA4Gjx7cMflotxFhx-20">
          <mxGeometry relative="1" as="geometry" />
        </mxCell>
        <mxCell id="rmGUA4Gjx7cMflotxFhx-114" style="edgeStyle=none;curved=1;rounded=0;orthogonalLoop=1;jettySize=auto;html=1;fontSize=12;startSize=8;endSize=8;entryX=0;entryY=0.25;entryDx=0;entryDy=0;entryPerimeter=0;exitX=1;exitY=0.75;exitDx=0;exitDy=0;exitPerimeter=0;" edge="1" parent="1" source="rmGUA4Gjx7cMflotxFhx-22" target="rmGUA4Gjx7cMflotxFhx-28">
          <mxGeometry relative="1" as="geometry" />
        </mxCell>
        <mxCell id="rmGUA4Gjx7cMflotxFhx-22" value="" style="sketch=0;points=[[0,0,0],[0.25,0,0],[0.5,0,0],[0.75,0,0],[1,0,0],[0,1,0],[0.25,1,0],[0.5,1,0],[0.75,1,0],[1,1,0],[0,0.25,0],[0,0.5,0],[0,0.75,0],[1,0.25,0],[1,0.5,0],[1,0.75,0]];outlineConnect=0;fontColor=#232F3E;gradientColor=#F78E04;gradientDirection=north;fillColor=#D05C17;strokeColor=#ffffff;dashed=0;verticalLabelPosition=bottom;verticalAlign=top;align=center;html=1;fontSize=12;fontStyle=0;aspect=fixed;shape=mxgraph.aws4.resourceIcon;resIcon=mxgraph.aws4.lambda;" vertex="1" parent="1">
          <mxGeometry x="-410" y="50" width="60" height="60" as="geometry" />
        </mxCell>
        <mxCell id="rmGUA4Gjx7cMflotxFhx-24" value="Ingest" style="text;html=1;strokeColor=none;fillColor=none;align=center;verticalAlign=middle;whiteSpace=wrap;rounded=0;fontSize=16;" vertex="1" parent="1">
          <mxGeometry x="-187.5" y="60" width="105" height="30" as="geometry" />
        </mxCell>
        <mxCell id="rmGUA4Gjx7cMflotxFhx-26" value="" style="endArrow=classic;html=1;rounded=0;fontSize=12;startSize=8;endSize=8;curved=1;entryX=0.052;entryY=0.208;entryDx=0;entryDy=0;entryPerimeter=0;exitX=1;exitY=0.5;exitDx=0;exitDy=0;exitPerimeter=0;" edge="1" parent="1" source="rmGUA4Gjx7cMflotxFhx-20" target="rmGUA4Gjx7cMflotxFhx-1">
          <mxGeometry width="50" height="50" relative="1" as="geometry">
            <mxPoint x="170" y="270" as="sourcePoint" />
            <mxPoint x="100" y="120" as="targetPoint" />
          </mxGeometry>
        </mxCell>
        <mxCell id="rmGUA4Gjx7cMflotxFhx-31" style="edgeStyle=none;curved=1;rounded=0;orthogonalLoop=1;jettySize=auto;html=1;fontSize=12;startSize=8;endSize=8;exitX=1;exitY=0.5;exitDx=0;exitDy=0;exitPerimeter=0;" edge="1" parent="1" source="rmGUA4Gjx7cMflotxFhx-28" target="rmGUA4Gjx7cMflotxFhx-1">
          <mxGeometry relative="1" as="geometry" />
        </mxCell>
        <mxCell id="rmGUA4Gjx7cMflotxFhx-28" value="" style="sketch=0;points=[[0,0,0],[0.25,0,0],[0.5,0,0],[0.75,0,0],[1,0,0],[0,1,0],[0.25,1,0],[0.5,1,0],[0.75,1,0],[1,1,0],[0,0.25,0],[0,0.5,0],[0,0.75,0],[1,0.25,0],[1,0.5,0],[1,0.75,0]];outlineConnect=0;fontColor=#232F3E;gradientColor=#945DF2;gradientDirection=north;fillColor=#5A30B5;strokeColor=#ffffff;dashed=0;verticalLabelPosition=bottom;verticalAlign=top;align=center;html=1;fontSize=12;fontStyle=0;aspect=fixed;shape=mxgraph.aws4.resourceIcon;resIcon=mxgraph.aws4.emr;" vertex="1" parent="1">
          <mxGeometry x="-165" y="200" width="60" height="60" as="geometry" />
        </mxCell>
        <mxCell id="rmGUA4Gjx7cMflotxFhx-32" value="Bulk Import" style="text;html=1;strokeColor=none;fillColor=none;align=center;verticalAlign=middle;whiteSpace=wrap;rounded=0;fontSize=16;" vertex="1" parent="1">
          <mxGeometry x="-187.5" y="170" width="105" height="30" as="geometry" />
        </mxCell>
        <mxCell id="rmGUA4Gjx7cMflotxFhx-33" value="" style="image;points=[];aspect=fixed;html=1;align=center;shadow=0;dashed=0;image=img/lib/allied_telesis/computer_and_terminals/Personal_Computer.svg;fontSize=16;" vertex="1" parent="1">
          <mxGeometry x="-680" y="260" width="45.6" height="61.800000000000004" as="geometry" />
        </mxCell>
        <mxCell id="rmGUA4Gjx7cMflotxFhx-34" value="Client Application" style="text;html=1;strokeColor=none;fillColor=none;align=center;verticalAlign=middle;whiteSpace=wrap;rounded=0;fontSize=16;" vertex="1" parent="1">
          <mxGeometry x="-687.2" y="340" width="60" height="30" as="geometry" />
        </mxCell>
        <mxCell id="rmGUA4Gjx7cMflotxFhx-35" value="" style="endArrow=classic;html=1;rounded=0;fontSize=12;startSize=8;endSize=8;curved=1;" edge="1" parent="1">
          <mxGeometry width="50" height="50" relative="1" as="geometry">
            <mxPoint x="-600" y="260" as="sourcePoint" />
            <mxPoint x="-520" y="140" as="targetPoint" />
          </mxGeometry>
        </mxCell>
        <mxCell id="rmGUA4Gjx7cMflotxFhx-36" value="Job Queues, Batcher" style="text;html=1;strokeColor=none;fillColor=none;align=center;verticalAlign=middle;whiteSpace=wrap;rounded=0;fontSize=16;" vertex="1" parent="1">
          <mxGeometry x="-530" y="10" width="100" height="30" as="geometry" />
        </mxCell>
        <mxCell id="rmGUA4Gjx7cMflotxFhx-37" value="" style="sketch=0;points=[[0,0,0],[0.25,0,0],[0.5,0,0],[0.75,0,0],[1,0,0],[0,1,0],[0.25,1,0],[0.5,1,0],[0.75,1,0],[1,1,0],[0,0.25,0],[0,0.5,0],[0,0.75,0],[1,0.25,0],[1,0.5,0],[1,0.75,0]];outlineConnect=0;fontColor=#232F3E;gradientColor=#945DF2;gradientDirection=north;fillColor=#5A30B5;strokeColor=#ffffff;dashed=0;verticalLabelPosition=bottom;verticalAlign=top;align=center;html=1;fontSize=12;fontStyle=0;aspect=fixed;shape=mxgraph.aws4.resourceIcon;resIcon=mxgraph.aws4.athena;" vertex="1" parent="1">
          <mxGeometry x="-220" y="400" width="60" height="60" as="geometry" />
        </mxCell>
        <mxCell id="rmGUA4Gjx7cMflotxFhx-38" value="" style="shape=image;verticalLabelPosition=bottom;labelBackgroundColor=default;verticalAlign=top;aspect=fixed;imageAspect=0;image=https://blogs.ashrithgn.com/content/images/size/w600/2021/04/trino-og.png;" vertex="1" parent="1">
          <mxGeometry x="-156.67" y="400" width="133.33" height="60" as="geometry" />
        </mxCell>
        <mxCell id="rmGUA4Gjx7cMflotxFhx-39" value="SQL" style="text;html=1;strokeColor=none;fillColor=none;align=center;verticalAlign=middle;whiteSpace=wrap;rounded=0;fontSize=16;" vertex="1" parent="1">
          <mxGeometry x="-170" y="370" width="60" height="30" as="geometry" />
        </mxCell>
        <mxCell id="rmGUA4Gjx7cMflotxFhx-44" style="edgeStyle=none;curved=1;rounded=0;orthogonalLoop=1;jettySize=auto;html=1;fontSize=12;startSize=8;endSize=8;exitX=1;exitY=0.5;exitDx=0;exitDy=0;exitPerimeter=0;startArrow=classic;startFill=1;entryX=0.036;entryY=0.8;entryDx=0;entryDy=0;entryPerimeter=0;" edge="1" parent="1" source="rmGUA4Gjx7cMflotxFhx-40" target="rmGUA4Gjx7cMflotxFhx-1">
          <mxGeometry relative="1" as="geometry" />
        </mxCell>
        <mxCell id="rmGUA4Gjx7cMflotxFhx-40" value="" style="sketch=0;points=[[0,0,0],[0.25,0,0],[0.5,0,0],[0.75,0,0],[1,0,0],[0,1,0],[0.25,1,0],[0.5,1,0],[0.75,1,0],[1,1,0],[0,0.25,0],[0,0.5,0],[0,0.75,0],[1,0.25,0],[1,0.5,0],[1,0.75,0]];outlineConnect=0;fontColor=#232F3E;gradientColor=#F78E04;gradientDirection=north;fillColor=#D05C17;strokeColor=#ffffff;dashed=0;verticalLabelPosition=bottom;verticalAlign=top;align=center;html=1;fontSize=12;fontStyle=0;aspect=fixed;shape=mxgraph.aws4.resourceIcon;resIcon=mxgraph.aws4.lambda;" vertex="1" parent="1">
          <mxGeometry x="-170" y="520" width="60" height="60" as="geometry" />
        </mxCell>
        <mxCell id="rmGUA4Gjx7cMflotxFhx-41" value="" style="sketch=0;points=[[0,0,0],[0.25,0,0],[0.5,0,0],[0.75,0,0],[1,0,0],[0,1,0],[0.25,1,0],[0.5,1,0],[0.75,1,0],[1,1,0],[0,0.25,0],[0,0.5,0],[0,0.75,0],[1,0.25,0],[1,0.5,0],[1,0.75,0]];outlineConnect=0;fontColor=#232F3E;gradientColor=#FF4F8B;gradientDirection=north;fillColor=#BC1356;strokeColor=#ffffff;dashed=0;verticalLabelPosition=bottom;verticalAlign=top;align=center;html=1;fontSize=12;fontStyle=0;aspect=fixed;shape=mxgraph.aws4.resourceIcon;resIcon=mxgraph.aws4.sqs;" vertex="1" parent="1">
          <mxGeometry x="-410" y="480" width="60" height="60" as="geometry" />
        </mxCell>
        <mxCell id="rmGUA4Gjx7cMflotxFhx-42" value="Query" style="text;html=1;strokeColor=none;fillColor=none;align=center;verticalAlign=middle;whiteSpace=wrap;rounded=0;fontSize=16;" vertex="1" parent="1">
          <mxGeometry x="-192.5" y="490" width="105" height="30" as="geometry" />
        </mxCell>
        <mxCell id="rmGUA4Gjx7cMflotxFhx-45" value="" style="sketch=0;points=[[0,0,0],[0.25,0,0],[0.5,0,0],[0.75,0,0],[1,0,0],[0,1,0],[0.25,1,0],[0.5,1,0],[0.75,1,0],[1,1,0],[0,0.25,0],[0,0.5,0],[0,0.75,0],[1,0.25,0],[1,0.5,0],[1,0.75,0]];outlineConnect=0;fontColor=#232F3E;gradientColor=#FF4F8B;gradientDirection=north;fillColor=#BC1356;strokeColor=#ffffff;dashed=0;verticalLabelPosition=bottom;verticalAlign=top;align=center;html=1;fontSize=12;fontStyle=0;aspect=fixed;shape=mxgraph.aws4.resourceIcon;resIcon=mxgraph.aws4.api_gateway;" vertex="1" parent="1">
          <mxGeometry x="-410" y="550" width="60" height="60" as="geometry" />
        </mxCell>
        <mxCell id="rmGUA4Gjx7cMflotxFhx-46" value="" style="endArrow=classic;startArrow=classic;html=1;rounded=0;fontSize=12;startSize=8;endSize=8;curved=1;" edge="1" parent="1" target="rmGUA4Gjx7cMflotxFhx-40">
          <mxGeometry width="50" height="50" relative="1" as="geometry">
            <mxPoint x="-330" y="540" as="sourcePoint" />
            <mxPoint x="220" y="200" as="targetPoint" />
          </mxGeometry>
        </mxCell>
        <mxCell id="rmGUA4Gjx7cMflotxFhx-47" value="" style="endArrow=classic;startArrow=classic;html=1;rounded=0;fontSize=12;startSize=8;endSize=8;curved=1;" edge="1" parent="1">
          <mxGeometry width="50" height="50" relative="1" as="geometry">
            <mxPoint x="-600" y="370" as="sourcePoint" />
            <mxPoint x="-430" y="510" as="targetPoint" />
          </mxGeometry>
        </mxCell>
        <mxCell id="rmGUA4Gjx7cMflotxFhx-79" style="edgeStyle=none;curved=1;rounded=0;orthogonalLoop=1;jettySize=auto;html=1;fontSize=12;startSize=8;endSize=8;" edge="1" parent="1" source="rmGUA4Gjx7cMflotxFhx-49" target="rmGUA4Gjx7cMflotxFhx-68">
          <mxGeometry relative="1" as="geometry" />
        </mxCell>
        <mxCell id="rmGUA4Gjx7cMflotxFhx-49" value="" style="sketch=0;points=[[0,0,0],[0.25,0,0],[0.5,0,0],[0.75,0,0],[1,0,0],[0,1,0],[0.25,1,0],[0.5,1,0],[0.75,1,0],[1,1,0],[0,0.25,0],[0,0.5,0],[0,0.75,0],[1,0.25,0],[1,0.5,0],[1,0.75,0]];points=[[0,0,0],[0.25,0,0],[0.5,0,0],[0.75,0,0],[1,0,0],[0,1,0],[0.25,1,0],[0.5,1,0],[0.75,1,0],[1,1,0],[0,0.25,0],[0,0.5,0],[0,0.75,0],[1,0.25,0],[1,0.5,0],[1,0.75,0]];outlineConnect=0;fontColor=#232F3E;gradientColor=#F34482;gradientDirection=north;fillColor=#BC1356;strokeColor=#ffffff;dashed=0;verticalLabelPosition=bottom;verticalAlign=top;align=center;html=1;fontSize=12;fontStyle=0;aspect=fixed;shape=mxgraph.aws4.resourceIcon;resIcon=mxgraph.aws4.cloudwatch_2;" vertex="1" parent="1">
          <mxGeometry x="860" y="250" width="60" height="60" as="geometry" />
        </mxCell>
        <mxCell id="rmGUA4Gjx7cMflotxFhx-51" value="" style="endArrow=none;dashed=1;html=1;dashPattern=1 3;strokeWidth=5;rounded=0;fontSize=12;startSize=8;endSize=8;curved=1;" edge="1" parent="1">
          <mxGeometry width="50" height="50" relative="1" as="geometry">
            <mxPoint x="889.5" y="380" as="sourcePoint" />
            <mxPoint x="889.5" y="330" as="targetPoint" />
          </mxGeometry>
        </mxCell>
        <mxCell id="rmGUA4Gjx7cMflotxFhx-52" value="Query Queues,&amp;nbsp;&lt;br&gt;Web Sockets" style="text;html=1;strokeColor=none;fillColor=none;align=center;verticalAlign=middle;whiteSpace=wrap;rounded=0;fontSize=16;" vertex="1" parent="1">
          <mxGeometry x="-440" y="440" width="120" height="30" as="geometry" />
        </mxCell>
        <mxCell id="rmGUA4Gjx7cMflotxFhx-55" value="" style="sketch=0;points=[[0,0,0],[0.25,0,0],[0.5,0,0],[0.75,0,0],[1,0,0],[0,1,0],[0.25,1,0],[0.5,1,0],[0.75,1,0],[1,1,0],[0,0.25,0],[0,0.5,0],[0,0.75,0],[1,0.25,0],[1,0.5,0],[1,0.75,0]];outlineConnect=0;fontColor=#232F3E;gradientColor=#4D72F3;gradientDirection=north;fillColor=#3334B9;strokeColor=#ffffff;dashed=0;verticalLabelPosition=bottom;verticalAlign=top;align=center;html=1;fontSize=12;fontStyle=0;aspect=fixed;shape=mxgraph.aws4.resourceIcon;resIcon=mxgraph.aws4.dynamodb;" vertex="1" parent="1">
          <mxGeometry x="175" y="250" width="60" height="60" as="geometry" />
        </mxCell>
        <mxCell id="rmGUA4Gjx7cMflotxFhx-57" value="State Store" style="text;html=1;strokeColor=none;fillColor=none;align=center;verticalAlign=middle;whiteSpace=wrap;rounded=0;fontSize=16;" vertex="1" parent="1">
          <mxGeometry x="150" y="220" width="110" height="30" as="geometry" />
        </mxCell>
        <mxCell id="rmGUA4Gjx7cMflotxFhx-58" value="" style="sketch=0;points=[[0,0,0],[0.25,0,0],[0.5,0,0],[0.75,0,0],[1,0,0],[0,1,0],[0.25,1,0],[0.5,1,0],[0.75,1,0],[1,1,0],[0,0.25,0],[0,0.5,0],[0,0.75,0],[1,0.25,0],[1,0.5,0],[1,0.75,0]];outlineConnect=0;fontColor=#232F3E;gradientColor=#60A337;gradientDirection=north;fillColor=#277116;strokeColor=#ffffff;dashed=0;verticalLabelPosition=bottom;verticalAlign=top;align=center;html=1;fontSize=12;fontStyle=0;aspect=fixed;shape=mxgraph.aws4.resourceIcon;resIcon=mxgraph.aws4.s3;" vertex="1" parent="1">
          <mxGeometry x="175" y="360" width="60" height="60" as="geometry" />
        </mxCell>
        <mxCell id="rmGUA4Gjx7cMflotxFhx-63" value="Table Data" style="text;html=1;strokeColor=none;fillColor=none;align=center;verticalAlign=middle;whiteSpace=wrap;rounded=0;fontSize=16;" vertex="1" parent="1">
          <mxGeometry x="150" y="330" width="110" height="30" as="geometry" />
        </mxCell>
        <mxCell id="rmGUA4Gjx7cMflotxFhx-64" value="" style="rounded=1;whiteSpace=wrap;html=1;fontSize=16;fillColor=#fff2cc;strokeColor=#d6b656;dashed=1;arcSize=38;" vertex="1" parent="1">
          <mxGeometry x="420" y="200" width="250" height="250" as="geometry" />
        </mxCell>
        <mxCell id="rmGUA4Gjx7cMflotxFhx-74" style="edgeStyle=none;curved=1;rounded=0;orthogonalLoop=1;jettySize=auto;html=1;fontSize=12;startSize=8;endSize=8;" edge="1" parent="1" target="rmGUA4Gjx7cMflotxFhx-66">
          <mxGeometry relative="1" as="geometry">
            <mxPoint x="740" y="390" as="sourcePoint" />
          </mxGeometry>
        </mxCell>
        <mxCell id="rmGUA4Gjx7cMflotxFhx-75" style="edgeStyle=none;curved=1;rounded=0;orthogonalLoop=1;jettySize=auto;html=1;fontSize=12;startSize=8;endSize=8;" edge="1" parent="1" source="rmGUA4Gjx7cMflotxFhx-66" target="rmGUA4Gjx7cMflotxFhx-67">
          <mxGeometry relative="1" as="geometry" />
        </mxCell>
        <mxCell id="rmGUA4Gjx7cMflotxFhx-66" value="" style="sketch=0;points=[[0,0,0],[0.25,0,0],[0.5,0,0],[0.75,0,0],[1,0,0],[0,1,0],[0.25,1,0],[0.5,1,0],[0.75,1,0],[1,1,0],[0,0.25,0],[0,0.5,0],[0,0.75,0],[1,0.25,0],[1,0.5,0],[1,0.75,0]];outlineConnect=0;fontColor=#232F3E;gradientColor=#FF4F8B;gradientDirection=north;fillColor=#BC1356;strokeColor=#ffffff;dashed=0;verticalLabelPosition=bottom;verticalAlign=top;align=center;html=1;fontSize=12;fontStyle=0;aspect=fixed;shape=mxgraph.aws4.resourceIcon;resIcon=mxgraph.aws4.sqs;" vertex="1" parent="1">
          <mxGeometry x="560" y="360" width="60" height="60" as="geometry" />
        </mxCell>
        <mxCell id="rmGUA4Gjx7cMflotxFhx-71" style="edgeStyle=none;curved=1;rounded=0;orthogonalLoop=1;jettySize=auto;html=1;fontSize=12;startSize=8;endSize=8;startArrow=classic;startFill=1;exitX=0;exitY=0.5;exitDx=0;exitDy=0;exitPerimeter=0;" edge="1" parent="1" source="rmGUA4Gjx7cMflotxFhx-67" target="rmGUA4Gjx7cMflotxFhx-1">
          <mxGeometry relative="1" as="geometry" />
        </mxCell>
        <mxCell id="rmGUA4Gjx7cMflotxFhx-67" value="" style="sketch=0;points=[[0,0,0],[0.25,0,0],[0.5,0,0],[0.75,0,0],[1,0,0],[0,1,0],[0.25,1,0],[0.5,1,0],[0.75,1,0],[1,1,0],[0,0.25,0],[0,0.5,0],[0,0.75,0],[1,0.25,0],[1,0.5,0],[1,0.75,0]];outlineConnect=0;fontColor=#232F3E;gradientColor=#F78E04;gradientDirection=north;fillColor=#D05C17;strokeColor=#ffffff;dashed=0;verticalLabelPosition=bottom;verticalAlign=top;align=center;html=1;fontSize=12;fontStyle=0;aspect=fixed;shape=mxgraph.aws4.resourceIcon;resIcon=mxgraph.aws4.lambda;" vertex="1" parent="1">
          <mxGeometry x="470" y="360" width="60" height="60" as="geometry" />
        </mxCell>
        <mxCell id="rmGUA4Gjx7cMflotxFhx-72" style="edgeStyle=none;curved=1;rounded=0;orthogonalLoop=1;jettySize=auto;html=1;fontSize=12;startSize=8;endSize=8;" edge="1" parent="1" target="rmGUA4Gjx7cMflotxFhx-69">
          <mxGeometry relative="1" as="geometry">
            <mxPoint x="740" y="280" as="sourcePoint" />
          </mxGeometry>
        </mxCell>
        <mxCell id="rmGUA4Gjx7cMflotxFhx-68" value="" style="sketch=0;points=[[0,0,0],[0.25,0,0],[0.5,0,0],[0.75,0,0],[1,0,0],[0,1,0],[0.25,1,0],[0.5,1,0],[0.75,1,0],[1,1,0],[0,0.25,0],[0,0.5,0],[0,0.75,0],[1,0.25,0],[1,0.5,0],[1,0.75,0]];outlineConnect=0;fontColor=#232F3E;gradientColor=#F78E04;gradientDirection=north;fillColor=#D05C17;strokeColor=#ffffff;dashed=0;verticalLabelPosition=bottom;verticalAlign=top;align=center;html=1;fontSize=12;fontStyle=0;aspect=fixed;shape=mxgraph.aws4.resourceIcon;resIcon=mxgraph.aws4.lambda;" vertex="1" parent="1">
          <mxGeometry x="760" y="250" width="60" height="60" as="geometry" />
        </mxCell>
        <mxCell id="rmGUA4Gjx7cMflotxFhx-73" style="edgeStyle=none;curved=1;rounded=0;orthogonalLoop=1;jettySize=auto;html=1;fontSize=12;startSize=8;endSize=8;" edge="1" parent="1" source="rmGUA4Gjx7cMflotxFhx-69" target="rmGUA4Gjx7cMflotxFhx-70">
          <mxGeometry relative="1" as="geometry" />
        </mxCell>
        <mxCell id="rmGUA4Gjx7cMflotxFhx-69" value="" style="sketch=0;points=[[0,0,0],[0.25,0,0],[0.5,0,0],[0.75,0,0],[1,0,0],[0,1,0],[0.25,1,0],[0.5,1,0],[0.75,1,0],[1,1,0],[0,0.25,0],[0,0.5,0],[0,0.75,0],[1,0.25,0],[1,0.5,0],[1,0.75,0]];outlineConnect=0;fontColor=#232F3E;gradientColor=#FF4F8B;gradientDirection=north;fillColor=#BC1356;strokeColor=#ffffff;dashed=0;verticalLabelPosition=bottom;verticalAlign=top;align=center;html=1;fontSize=12;fontStyle=0;aspect=fixed;shape=mxgraph.aws4.resourceIcon;resIcon=mxgraph.aws4.sqs;" vertex="1" parent="1">
          <mxGeometry x="560" y="250" width="60" height="60" as="geometry" />
        </mxCell>
        <mxCell id="rmGUA4Gjx7cMflotxFhx-70" value="" style="sketch=0;points=[[0,0,0],[0.25,0,0],[0.5,0,0],[0.75,0,0],[1,0,0],[0,1,0],[0.25,1,0],[0.5,1,0],[0.75,1,0],[1,1,0],[0,0.25,0],[0,0.5,0],[0,0.75,0],[1,0.25,0],[1,0.5,0],[1,0.75,0]];outlineConnect=0;fontColor=#232F3E;gradientColor=#F78E04;gradientDirection=north;fillColor=#D05C17;strokeColor=#ffffff;dashed=0;verticalLabelPosition=bottom;verticalAlign=top;align=center;html=1;fontSize=12;fontStyle=0;aspect=fixed;shape=mxgraph.aws4.resourceIcon;resIcon=mxgraph.aws4.fargate;" vertex="1" parent="1">
          <mxGeometry x="470" y="250" width="60" height="60" as="geometry" />
        </mxCell>
        <mxCell id="rmGUA4Gjx7cMflotxFhx-11" style="edgeStyle=none;curved=1;rounded=0;orthogonalLoop=1;jettySize=auto;html=1;fontSize=12;startSize=8;endSize=8;startArrow=classic;startFill=1;entryX=0;entryY=0.5;entryDx=0;entryDy=0;entryPerimeter=0;" edge="1" parent="1" source="rmGUA4Gjx7cMflotxFhx-1" target="rmGUA4Gjx7cMflotxFhx-70">
          <mxGeometry relative="1" as="geometry">
            <mxPoint x="550" y="325" as="targetPoint" />
          </mxGeometry>
        </mxCell>
        <mxCell id="rmGUA4Gjx7cMflotxFhx-77" value="Compaction" style="text;html=1;strokeColor=none;fillColor=none;align=center;verticalAlign=middle;whiteSpace=wrap;rounded=0;fontSize=16;" vertex="1" parent="1">
          <mxGeometry x="490" y="220" width="110" height="30" as="geometry" />
        </mxCell>
        <mxCell id="rmGUA4Gjx7cMflotxFhx-78" value="Partition Splitting / GC" style="text;html=1;strokeColor=none;fillColor=none;align=center;verticalAlign=middle;whiteSpace=wrap;rounded=0;fontSize=16;" vertex="1" parent="1">
          <mxGeometry x="462.5" y="330" width="165" height="30" as="geometry" />
        </mxCell>
        <mxCell id="rmGUA4Gjx7cMflotxFhx-80" value="" style="endArrow=none;dashed=1;html=1;dashPattern=1 3;strokeWidth=5;rounded=0;fontSize=12;startSize=8;endSize=8;curved=1;" edge="1" parent="1">
          <mxGeometry width="50" height="50" relative="1" as="geometry">
            <mxPoint x="789.5" y="380" as="sourcePoint" />
            <mxPoint x="789.5" y="330" as="targetPoint" />
          </mxGeometry>
        </mxCell>
        <mxCell id="rmGUA4Gjx7cMflotxFhx-81" value="Schedule&lt;br&gt;Rules" style="text;html=1;strokeColor=none;fillColor=none;align=center;verticalAlign=middle;whiteSpace=wrap;rounded=0;fontSize=16;" vertex="1" parent="1">
          <mxGeometry x="830" y="200" width="120" height="50" as="geometry" />
        </mxCell>
        <mxCell id="rmGUA4Gjx7cMflotxFhx-82" value="Data Maintenance" style="text;html=1;strokeColor=none;fillColor=none;align=center;verticalAlign=middle;whiteSpace=wrap;rounded=0;fontSize=18;" vertex="1" parent="1">
          <mxGeometry x="420" y="450" width="250" height="30" as="geometry" />
        </mxCell>
        <mxCell id="rmGUA4Gjx7cMflotxFhx-85" value="" style="sketch=0;points=[[0,0,0],[0.25,0,0],[0.5,0,0],[0.75,0,0],[1,0,0],[0,1,0],[0.25,1,0],[0.5,1,0],[0.75,1,0],[1,1,0],[0,0.25,0],[0,0.5,0],[0,0.75,0],[1,0.25,0],[1,0.5,0],[1,0.75,0]];outlineConnect=0;fontColor=#232F3E;gradientColor=#FF4F8B;gradientDirection=north;fillColor=#BC1356;strokeColor=#ffffff;dashed=0;verticalLabelPosition=bottom;verticalAlign=top;align=center;html=1;fontSize=12;fontStyle=0;aspect=fixed;shape=mxgraph.aws4.resourceIcon;resIcon=mxgraph.aws4.sqs;" vertex="1" parent="1">
          <mxGeometry x="240" y="610" width="40" height="40" as="geometry" />
        </mxCell>
        <mxCell id="rmGUA4Gjx7cMflotxFhx-86" value="SQS" style="text;html=1;strokeColor=none;fillColor=none;align=left;verticalAlign=middle;whiteSpace=wrap;rounded=0;fontSize=16;" vertex="1" parent="1">
          <mxGeometry x="290" y="615" width="60" height="30" as="geometry" />
        </mxCell>
        <mxCell id="rmGUA4Gjx7cMflotxFhx-87" value="" style="sketch=0;points=[[0,0,0],[0.25,0,0],[0.5,0,0],[0.75,0,0],[1,0,0],[0,1,0],[0.25,1,0],[0.5,1,0],[0.75,1,0],[1,1,0],[0,0.25,0],[0,0.5,0],[0,0.75,0],[1,0.25,0],[1,0.5,0],[1,0.75,0]];outlineConnect=0;fontColor=#232F3E;gradientColor=#FF4F8B;gradientDirection=north;fillColor=#BC1356;strokeColor=#ffffff;dashed=0;verticalLabelPosition=bottom;verticalAlign=top;align=center;html=1;fontSize=12;fontStyle=0;aspect=fixed;shape=mxgraph.aws4.resourceIcon;resIcon=mxgraph.aws4.api_gateway;" vertex="1" parent="1">
          <mxGeometry x="240" y="660" width="40" height="40" as="geometry" />
        </mxCell>
        <mxCell id="rmGUA4Gjx7cMflotxFhx-89" value="API Gateway" style="text;html=1;strokeColor=none;fillColor=none;align=left;verticalAlign=middle;whiteSpace=wrap;rounded=0;fontSize=16;" vertex="1" parent="1">
          <mxGeometry x="290" y="665" width="110" height="30" as="geometry" />
        </mxCell>
        <mxCell id="rmGUA4Gjx7cMflotxFhx-90" value="" style="sketch=0;points=[[0,0,0],[0.25,0,0],[0.5,0,0],[0.75,0,0],[1,0,0],[0,1,0],[0.25,1,0],[0.5,1,0],[0.75,1,0],[1,1,0],[0,0.25,0],[0,0.5,0],[0,0.75,0],[1,0.25,0],[1,0.5,0],[1,0.75,0]];outlineConnect=0;fontColor=#232F3E;gradientColor=#F78E04;gradientDirection=north;fillColor=#D05C17;strokeColor=#ffffff;dashed=0;verticalLabelPosition=bottom;verticalAlign=top;align=center;html=1;fontSize=12;fontStyle=0;aspect=fixed;shape=mxgraph.aws4.resourceIcon;resIcon=mxgraph.aws4.lambda;" vertex="1" parent="1">
          <mxGeometry x="460" y="610" width="40" height="40" as="geometry" />
        </mxCell>
        <mxCell id="rmGUA4Gjx7cMflotxFhx-91" value="" style="sketch=0;points=[[0,0,0],[0.25,0,0],[0.5,0,0],[0.75,0,0],[1,0,0],[0,1,0],[0.25,1,0],[0.5,1,0],[0.75,1,0],[1,1,0],[0,0.25,0],[0,0.5,0],[0,0.75,0],[1,0.25,0],[1,0.5,0],[1,0.75,0]];points=[[0,0,0],[0.25,0,0],[0.5,0,0],[0.75,0,0],[1,0,0],[0,1,0],[0.25,1,0],[0.5,1,0],[0.75,1,0],[1,1,0],[0,0.25,0],[0,0.5,0],[0,0.75,0],[1,0.25,0],[1,0.5,0],[1,0.75,0]];outlineConnect=0;fontColor=#232F3E;gradientColor=#F34482;gradientDirection=north;fillColor=#BC1356;strokeColor=#ffffff;dashed=0;verticalLabelPosition=bottom;verticalAlign=top;align=center;html=1;fontSize=12;fontStyle=0;aspect=fixed;shape=mxgraph.aws4.resourceIcon;resIcon=mxgraph.aws4.cloudwatch_2;" vertex="1" parent="1">
          <mxGeometry x="240" y="710" width="40" height="40" as="geometry" />
        </mxCell>
        <mxCell id="rmGUA4Gjx7cMflotxFhx-92" value="CloudWatch" style="text;html=1;strokeColor=none;fillColor=none;align=left;verticalAlign=middle;whiteSpace=wrap;rounded=0;fontSize=16;" vertex="1" parent="1">
          <mxGeometry x="290" y="715" width="110" height="30" as="geometry" />
        </mxCell>
        <mxCell id="rmGUA4Gjx7cMflotxFhx-93" value="Lambda" style="text;html=1;strokeColor=none;fillColor=none;align=left;verticalAlign=middle;whiteSpace=wrap;rounded=0;fontSize=16;" vertex="1" parent="1">
          <mxGeometry x="510" y="615" width="110" height="30" as="geometry" />
        </mxCell>
        <mxCell id="rmGUA4Gjx7cMflotxFhx-94" value="" style="sketch=0;points=[[0,0,0],[0.25,0,0],[0.5,0,0],[0.75,0,0],[1,0,0],[0,1,0],[0.25,1,0],[0.5,1,0],[0.75,1,0],[1,1,0],[0,0.25,0],[0,0.5,0],[0,0.75,0],[1,0.25,0],[1,0.5,0],[1,0.75,0]];outlineConnect=0;fontColor=#232F3E;gradientColor=#F78E04;gradientDirection=north;fillColor=#D05C17;strokeColor=#ffffff;dashed=0;verticalLabelPosition=bottom;verticalAlign=top;align=center;html=1;fontSize=12;fontStyle=0;aspect=fixed;shape=mxgraph.aws4.resourceIcon;resIcon=mxgraph.aws4.fargate;" vertex="1" parent="1">
          <mxGeometry x="460" y="660" width="40" height="40" as="geometry" />
        </mxCell>
        <mxCell id="rmGUA4Gjx7cMflotxFhx-95" value="Fargate" style="text;html=1;strokeColor=none;fillColor=none;align=left;verticalAlign=middle;whiteSpace=wrap;rounded=0;fontSize=16;" vertex="1" parent="1">
          <mxGeometry x="510" y="665" width="110" height="30" as="geometry" />
        </mxCell>
        <mxCell id="rmGUA4Gjx7cMflotxFhx-96" value="" style="sketch=0;points=[[0,0,0],[0.25,0,0],[0.5,0,0],[0.75,0,0],[1,0,0],[0,1,0],[0.25,1,0],[0.5,1,0],[0.75,1,0],[1,1,0],[0,0.25,0],[0,0.5,0],[0,0.75,0],[1,0.25,0],[1,0.5,0],[1,0.75,0]];outlineConnect=0;fontColor=#232F3E;gradientColor=#945DF2;gradientDirection=north;fillColor=#5A30B5;strokeColor=#ffffff;dashed=0;verticalLabelPosition=bottom;verticalAlign=top;align=center;html=1;fontSize=12;fontStyle=0;aspect=fixed;shape=mxgraph.aws4.resourceIcon;resIcon=mxgraph.aws4.emr;" vertex="1" parent="1">
          <mxGeometry x="460" y="710" width="40" height="40" as="geometry" />
        </mxCell>
        <mxCell id="rmGUA4Gjx7cMflotxFhx-97" value="Elastic MapReduce" style="text;html=1;strokeColor=none;fillColor=none;align=left;verticalAlign=middle;whiteSpace=wrap;rounded=0;fontSize=16;" vertex="1" parent="1">
          <mxGeometry x="510" y="715" width="150" height="30" as="geometry" />
        </mxCell>
        <mxCell id="rmGUA4Gjx7cMflotxFhx-98" value="" style="sketch=0;points=[[0,0,0],[0.25,0,0],[0.5,0,0],[0.75,0,0],[1,0,0],[0,1,0],[0.25,1,0],[0.5,1,0],[0.75,1,0],[1,1,0],[0,0.25,0],[0,0.5,0],[0,0.75,0],[1,0.25,0],[1,0.5,0],[1,0.75,0]];outlineConnect=0;fontColor=#232F3E;gradientColor=#945DF2;gradientDirection=north;fillColor=#5A30B5;strokeColor=#ffffff;dashed=0;verticalLabelPosition=bottom;verticalAlign=top;align=center;html=1;fontSize=12;fontStyle=0;aspect=fixed;shape=mxgraph.aws4.resourceIcon;resIcon=mxgraph.aws4.athena;" vertex="1" parent="1">
          <mxGeometry x="680" y="710" width="40" height="40" as="geometry" />
        </mxCell>
        <mxCell id="rmGUA4Gjx7cMflotxFhx-99" value="Athena" style="text;html=1;strokeColor=none;fillColor=none;align=left;verticalAlign=middle;whiteSpace=wrap;rounded=0;fontSize=16;" vertex="1" parent="1">
          <mxGeometry x="730" y="715" width="110" height="30" as="geometry" />
        </mxCell>
        <mxCell id="rmGUA4Gjx7cMflotxFhx-100" value="" style="sketch=0;points=[[0,0,0],[0.25,0,0],[0.5,0,0],[0.75,0,0],[1,0,0],[0,1,0],[0.25,1,0],[0.5,1,0],[0.75,1,0],[1,1,0],[0,0.25,0],[0,0.5,0],[0,0.75,0],[1,0.25,0],[1,0.5,0],[1,0.75,0]];outlineConnect=0;fontColor=#232F3E;gradientColor=#4D72F3;gradientDirection=north;fillColor=#3334B9;strokeColor=#ffffff;dashed=0;verticalLabelPosition=bottom;verticalAlign=top;align=center;html=1;fontSize=12;fontStyle=0;aspect=fixed;shape=mxgraph.aws4.resourceIcon;resIcon=mxgraph.aws4.dynamodb;" vertex="1" parent="1">
          <mxGeometry x="680" y="660" width="40" height="40" as="geometry" />
        </mxCell>
        <mxCell id="rmGUA4Gjx7cMflotxFhx-101" value="DynamoDB" style="text;html=1;strokeColor=none;fillColor=none;align=left;verticalAlign=middle;whiteSpace=wrap;rounded=0;fontSize=16;" vertex="1" parent="1">
          <mxGeometry x="730" y="665" width="110" height="30" as="geometry" />
        </mxCell>
        <mxCell id="rmGUA4Gjx7cMflotxFhx-102" value="" style="sketch=0;points=[[0,0,0],[0.25,0,0],[0.5,0,0],[0.75,0,0],[1,0,0],[0,1,0],[0.25,1,0],[0.5,1,0],[0.75,1,0],[1,1,0],[0,0.25,0],[0,0.5,0],[0,0.75,0],[1,0.25,0],[1,0.5,0],[1,0.75,0]];outlineConnect=0;fontColor=#232F3E;gradientColor=#60A337;gradientDirection=north;fillColor=#277116;strokeColor=#ffffff;dashed=0;verticalLabelPosition=bottom;verticalAlign=top;align=center;html=1;fontSize=12;fontStyle=0;aspect=fixed;shape=mxgraph.aws4.resourceIcon;resIcon=mxgraph.aws4.s3;" vertex="1" parent="1">
          <mxGeometry x="680" y="610" width="40" height="40" as="geometry" />
        </mxCell>
        <mxCell id="rmGUA4Gjx7cMflotxFhx-103" value="S3" style="text;html=1;strokeColor=none;fillColor=none;align=left;verticalAlign=middle;whiteSpace=wrap;rounded=0;fontSize=16;" vertex="1" parent="1">
          <mxGeometry x="730" y="615" width="110" height="30" as="geometry" />
        </mxCell>
        <mxCell id="rmGUA4Gjx7cMflotxFhx-105" value="" style="endArrow=none;dashed=1;html=1;dashPattern=1 3;strokeWidth=5;rounded=0;fontSize=12;startSize=8;endSize=8;curved=1;" edge="1" parent="1">
          <mxGeometry width="50" height="50" relative="1" as="geometry">
            <mxPoint x="-380.5" y="180" as="sourcePoint" />
            <mxPoint x="-380.5" y="130" as="targetPoint" />
          </mxGeometry>
        </mxCell>
        <mxCell id="rmGUA4Gjx7cMflotxFhx-111" style="edgeStyle=none;curved=1;rounded=0;orthogonalLoop=1;jettySize=auto;html=1;fontSize=12;startSize=8;endSize=8;entryX=0;entryY=0.5;entryDx=0;entryDy=0;entryPerimeter=0;exitX=1;exitY=0.5;exitDx=0;exitDy=0;exitPerimeter=0;" edge="1" parent="1" source="rmGUA4Gjx7cMflotxFhx-106" target="rmGUA4Gjx7cMflotxFhx-28">
          <mxGeometry relative="1" as="geometry" />
        </mxCell>
        <mxCell id="rmGUA4Gjx7cMflotxFhx-112" style="edgeStyle=none;curved=1;rounded=0;orthogonalLoop=1;jettySize=auto;html=1;fontSize=12;startSize=8;endSize=8;entryX=0;entryY=0.5;entryDx=0;entryDy=0;entryPerimeter=0;exitX=1;exitY=0.25;exitDx=0;exitDy=0;exitPerimeter=0;" edge="1" parent="1" source="rmGUA4Gjx7cMflotxFhx-106" target="rmGUA4Gjx7cMflotxFhx-20">
          <mxGeometry relative="1" as="geometry" />
        </mxCell>
        <mxCell id="rmGUA4Gjx7cMflotxFhx-106" value="" style="sketch=0;points=[[0,0,0],[0.25,0,0],[0.5,0,0],[0.75,0,0],[1,0,0],[0,1,0],[0.25,1,0],[0.5,1,0],[0.75,1,0],[1,1,0],[0,0.25,0],[0,0.5,0],[0,0.75,0],[1,0.25,0],[1,0.5,0],[1,0.75,0]];outlineConnect=0;fontColor=#232F3E;gradientColor=#60A337;gradientDirection=north;fillColor=#277116;strokeColor=#ffffff;dashed=0;verticalLabelPosition=bottom;verticalAlign=top;align=center;html=1;fontSize=12;fontStyle=0;aspect=fixed;shape=mxgraph.aws4.resourceIcon;resIcon=mxgraph.aws4.s3;" vertex="1" parent="1">
          <mxGeometry x="-410" y="250" width="60" height="60" as="geometry" />
        </mxCell>
        <mxCell id="rmGUA4Gjx7cMflotxFhx-107" value="Source Data" style="text;html=1;strokeColor=none;fillColor=none;align=center;verticalAlign=middle;whiteSpace=wrap;rounded=0;fontSize=16;" vertex="1" parent="1">
          <mxGeometry x="-430" y="220" width="100" height="30" as="geometry" />
        </mxCell>
        <mxCell id="rmGUA4Gjx7cMflotxFhx-108" value="" style="endArrow=classic;startArrow=classic;html=1;rounded=0;fontSize=12;startSize=8;endSize=8;curved=1;entryX=0.08;entryY=0.28;entryDx=0;entryDy=0;entryPerimeter=0;" edge="1" parent="1" target="rmGUA4Gjx7cMflotxFhx-5">
          <mxGeometry width="50" height="50" relative="1" as="geometry">
            <mxPoint x="-600" y="330" as="sourcePoint" />
            <mxPoint x="-260" y="420" as="targetPoint" />
          </mxGeometry>
        </mxCell>
        <mxCell id="rmGUA4Gjx7cMflotxFhx-109" value="" style="endArrow=classic;startArrow=classic;html=1;rounded=0;fontSize=12;startSize=8;endSize=8;curved=1;exitX=0.95;exitY=0.333;exitDx=0;exitDy=0;exitPerimeter=0;" edge="1" parent="1" source="rmGUA4Gjx7cMflotxFhx-38" target="rmGUA4Gjx7cMflotxFhx-1">
          <mxGeometry width="50" height="50" relative="1" as="geometry">
            <mxPoint x="100" y="320" as="sourcePoint" />
            <mxPoint x="150" y="270" as="targetPoint" />
          </mxGeometry>
        </mxCell>
        <mxCell id="rmGUA4Gjx7cMflotxFhx-110" value="" style="endArrow=classic;html=1;rounded=0;fontSize=12;startSize=8;endSize=8;curved=1;" edge="1" parent="1" target="rmGUA4Gjx7cMflotxFhx-106">
          <mxGeometry width="50" height="50" relative="1" as="geometry">
            <mxPoint x="-600" y="290" as="sourcePoint" />
            <mxPoint x="150" y="280" as="targetPoint" />
          </mxGeometry>
        </mxCell>
        <mxCell id="rmGUA4Gjx7cMflotxFhx-115" value="Legend" style="text;html=1;strokeColor=none;fillColor=none;align=left;verticalAlign=middle;whiteSpace=wrap;rounded=0;fontSize=18;" vertex="1" parent="1">
          <mxGeometry x="250" y="560" width="60" height="30" as="geometry" />
        </mxCell>
        <mxCell id="rmGUA4Gjx7cMflotxFhx-116" value="" style="curved=1;endArrow=classic;html=1;rounded=0;fontSize=12;startSize=8;endSize=8;startArrow=classic;startFill=1;" edge="1" parent="1" target="rmGUA4Gjx7cMflotxFhx-1">
          <mxGeometry width="50" height="50" relative="1" as="geometry">
            <mxPoint x="-600" y="310" as="sourcePoint" />
            <mxPoint x="150" y="300" as="targetPoint" />
            <Array as="points">
              <mxPoint x="-420" y="340" />
            </Array>
          </mxGeometry>
        </mxCell>
      </root>
    </mxGraphModel>
  </diagram>
</mxfile>
